[Header]
FileType HTR
DataType HTRS
FileVersion 1
NumSegments 48
NumFrames 3
DataFrameRate 30
EulerRotationOrder ZYX
CalibrationUnits mm
RotationUnits Degrees
GlobalAxisofGravity Y
BoneLengthAxis Y
ScaleFactor 1.0
[SegmentNames&Hierarchy]
Wolf	GLOBAL
Becken	Wolf
Bauch	Becken
Bauch_001	Bauch
Brust	Bauch_001
Hals	Brust
Kopf_002	Hals
Kopf	Kopf_002
Unterkiefer	Kopf
Hals_fett	Unterkiefer
Maulunten	Unterkiefer
Mauloben	Kopf
MundW_L	Kopf
MundW_R	Kopf
Augen_con	Kopf
IK_Aug_R	Augen_con
IK_Aug_L	Augen_con
Aug_R	Kopf
aug_L	Kopf
Ohr_L	Kopf
Ohr_R	Kopf
Braun_O_L	Kopf
Braun_O_R	Kopf
aug_lied_O_L	Kopf
aug_lied_O_R	Kopf
aug_lied_U_L	Kopf
aug_lied_U_R	Kopf
Bauch_003	Brust
Schalterplatte_L	Bauch_003
Oberarm_L	Schalterplatte_L
Unterarm_L	Oberarm_L
Vorderpfote_L	Unterarm_L
Schalterplatte_R	Bauch_003
Oberarm_R	Schalterplatte_R
Unterarm_R	Oberarm_R
Vorderpfote_R	Unterarm_R
Schwanz	Becken
Schwanz_001	Schwanz
Schwanz_002	Schwanz_001
Schwanz_003	Schwanz_002
Oberschenkel_L	Becken
Unterschenkel_L	Oberschenkel_L
Pfote1_L	Unterschenkel_L
Pfote2_L	Pfote1_L
Oberschenkel_R	Becken
Unterschenkel_R	Oberschenkel_R
Pfote1_R	Unterschenkel_R
Pfote2_R	Pfote1_R
[BasePosition]
Wolf	0	0	0	0	0	0	1
Becken	0	0	0	0	0	0	1
Bauch	0	0	0	0	0	0	1
Bauch_001	0	0	0	0	0	0	1
Brust	0	0	0	0	0	0	1
Hals	0	0	0	0	0	0	1
Kopf_002	0	0	0	0	0	0	1
Kopf	0	0	0	0	0	0	1
Unterkiefer	0	0	0	0	0	0	1
Hals_fett	0	0	0	0	0	0	1
Maulunten	0	0	0	0	0	0	1
Mauloben	0	0	0	0	0	0	1
MundW_L	0	0	0	0	0	0	1
MundW_R	0	0	0	0	0	0	1
Augen_con	0	0	0	0	0	0	1
IK_Aug_R	0	0	0	0	0	0	1
IK_Aug_L	0	0	0	0	0	0	1
Aug_R	0	0	0	0	0	0	1
aug_L	0	0	0	0	0	0	1
Ohr_L	0	0	0	0	0	0	1
Ohr_R	0	0	0	0	0	0	1
Braun_O_L	0	0	0	0	0	0	1
Braun_O_R	0	0	0	0	0	0	1
aug_lied_O_L	0	0	0	0	0	0	1
aug_lied_O_R	0	0	0	0	0	0	1
aug_lied_U_L	0	0	0	0	0	0	1
aug_lied_U_R	0	0	0	0	0	0	1
Bauch_003	0	0	0	0	0	0	1
Schalterplatte_L	0	0	0	0	0	0	1
Oberarm_L	0	0	0	0	0	0	1
Unterarm_L	0	0	0	0	0	0	1
Vorderpfote_L	0	0	0	0	0	0	1
Schalterplatte_R	0	0	0	0	0	0	1
Oberarm_R	0	0	0	0	0	0	1
Unterarm_R	0	0	0	0	0	0	1
Vorderpfote_R	0	0	0	0	0	0	1
Schwanz	0	0	0	0	0	0	1
Schwanz_001	0	0	0	0	0	0	1
Schwanz_002	0	0	0	0	0	0	1
Schwanz_003	0	0	0	0	0	0	1
Oberschenkel_L	0	0	0	0	0	0	1
Unterschenkel_L	0	0	0	0	0	0	1
Pfote1_L	0	0	0	0	0	0	1
Pfote2_L	0	0	0	0	0	0	1
Oberschenkel_R	0	0	0	0	0	0	1
Unterschenkel_R	0	0	0	0	0	0	1
Pfote1_R	0	0	0	0	0	0	1
Pfote2_R	0	0	0	0	0	0	1
[Wolf]
31	0	0	0	-90	-0	0	1.0
32	0	0	0	-90	-0	0	1.0
33	0	0	0	-90	-0	0	1.0
[Becken]
31	0	0.3591533005	-0.3028265834	-2.067962885	164.4212189	89.26520538	1.0
32	0	0.3477799892	-0.2831678987	-2.067962885	164.4212189	89.26520538	1.0
33	0	0.3364066482	-0.2635092139	-2.067962885	164.4212189	89.26520538	1.0
[Bauch]
31	0.9984878302	-0.00741992658	-0.150611341	-6.458931239e-07	12.60522842	-8.201818247e-08	1.0
32	0.9984878302	-0.00741992658	-0.150611341	-6.458931239e-07	12.60522842	-8.201818247e-08	1.0
33	0.9984878302	-0.00741992658	-0.150611341	-6.458931239e-07	12.60522842	-8.201818247e-08	1.0
[Bauch_001]
31	1.071342349	0.006600080058	-0.1893585622	-1.568805601e-07	2.360082865	-2.503413654e-08	1.0
32	1.071342349	0.006600080058	-0.1893585622	-1.568805601e-07	2.360082865	-2.503413654e-08	1.0
33	1.071342349	0.006600080058	-0.1893585622	-1.568805601e-07	2.360082865	-2.503413654e-08	1.0
[Brust]
31	1.41907382	-0.01381989196	0.3623858392	3.618613846e-06	10.7627573	-4.096809789e-05	1.0
32	1.41907382	-0.01381989196	0.3623858392	3.618613846e-06	10.7627573	-4.096809789e-05	1.0
33	1.41907382	-0.01381989196	0.3623858392	3.618613846e-06	10.7627573	-4.096809789e-05	1.0
[Hals]
31	1.1844244	-0.01484991144	1.02827692	-4.51789947e-06	46.87745285	-2.16624926e-06	1.0
32	1.1844244	-0.01484991144	1.02827692	-4.51789947e-06	46.87745285	-2.16624926e-06	1.0
33	1.1844244	-0.01484991144	1.02827692	-4.51789947e-06	46.87745285	-2.16624926e-06	1.0
[Kopf_002]
31	1.75259161	3.012944944e-05	0.2651725411	0.006653842982	-165.1497192	0.002556535648	1.0
32	1.75259161	3.012944944e-05	0.2651725411	0.006653842982	-165.1497192	0.002556535648	1.0
33	1.75259161	3.012944944e-05	0.2651725411	0.006653842982	-165.1497192	0.002556535648	1.0
[Kopf]
31	1.015781879	8.032657206e-08	9.111317922e-08	0.06872025877	123.2280426	-0.02605217695	1.0
32	1.015781879	8.032657206e-08	9.111317922e-08	0.06872025877	123.2280426	-0.02605217695	1.0
33	1.015781879	8.032657206e-08	9.111317922e-08	0.06872025877	123.2280426	-0.02605217695	1.0
[Unterkiefer]
31	0.6370437145	0.004552738741	0.4060620368	5.412721157	-68.3888092	-3.09354353	1.0
32	0.6370437145	0.004552738741	0.4060620368	5.412721157	-68.3888092	-3.09354353	1.0
33	0.6370437145	0.004552738741	0.4060620368	5.412721157	-68.3888092	-3.09354353	1.0
[Hals_fett]
31	0.2998299599	0.007747137919	0.1206380203	-5.071650982	-59.35961533	5.585566998	1.0
32	0.2998299599	0.007747137919	0.1206380203	-5.071650982	-59.35961533	5.585566998	1.0
33	0.2998299599	0.007747137919	0.1206380203	-5.071650982	-59.35961533	5.585566998	1.0
[Maulunten]
31	0.08317943662	-0.007747350261	-0.1206459776	-3.32220912	38.97271347	-0.871876061	1.0
32	0.08317943662	-0.007747350261	-0.1206459776	-3.32220912	38.97271347	-0.871876061	1.0
33	0.08317943662	-0.007747350261	-0.1206459776	-3.32220912	38.97271347	-0.871876061	1.0
[Mauloben]
31	0.910148263	0.0004056794569	0.4003701806	-0.1032674983	-28.77768707	0.03543139994	1.0
32	0.910148263	0.0004056794569	0.4003701806	-0.1032674983	-28.77768707	0.03543139994	1.0
33	0.910148263	0.0004056794569	0.4003701806	-0.1032674983	-28.77768707	0.03543139994	1.0
[MundW_L]
31	0.673060894	-0.3618556261	0.3751286268	-179.8370972	-17.94884872	24.71397209	1.0
32	0.673060894	-0.3618556261	0.3751286268	-179.8370972	-17.94884872	24.71397209	1.0
33	0.673060894	-0.3618556261	0.3751286268	-179.8370972	-17.94884872	24.71397209	1.0
[MundW_R]
31	0.6732318401	0.3627035022	0.37398085	179.6653442	-18.02427101	-24.69083977	1.0
32	0.6732318401	0.3627035022	0.37398085	179.6653442	-18.02427101	-24.69083977	1.0
33	0.6732318401	0.3627035022	0.37398085	179.6653442	-18.02427101	-24.69083977	1.0
[Augen_con]
31	1.807372689	-0.0001604028512	0.1835819334	0.09822253883	157.1545258	0.02385936864	1.0
32	1.807372689	-0.0001604028512	0.1835819334	0.09822253883	157.1545258	0.02385936864	1.0
33	1.807372689	-0.0001604028512	0.1835819334	0.09822253883	157.1545258	0.02385936864	1.0
[IK_Aug_R]
31	0.3461304307	0.2943200469	-8.032657206e-08	-0.4194762409	-4.963055134	165.6946411	1.0
32	0.3461304307	0.2943200469	-8.032657206e-08	-0.4194762409	-4.963055134	165.6946411	1.0
33	0.3461304307	0.2943200469	-8.032657206e-08	-0.4194762409	-4.963055134	165.6946411	1.0
[IK_Aug_L]
31	0.3461307883	-0.2943199575	-1.629814861e-08	0.4194769561	-4.963055134	-165.6946411	1.0
32	0.3461307883	-0.2943199575	-1.629814861e-08	0.4194769561	-4.963055134	-165.6946411	1.0
33	0.3461307883	-0.2943199575	-1.629814861e-08	0.4194769561	-4.963055134	-165.6946411	1.0
[Aug_R]
31	1.0351547	0.2207805812	-0.09605748951	176.004776	-17.29163933	12.85548019	1.0
32	1.0351547	0.2207805812	-0.09605748951	176.004776	-17.29163933	12.85548019	1.0
33	1.0351547	0.2207805812	-0.09605748951	176.004776	-17.29163933	12.85548019	1.0
[aug_L]
31	1.035044074	-0.2215988934	-0.09535883367	-176.1891022	-17.33178139	-12.83103275	1.0
32	1.035044074	-0.2215988934	-0.09535883367	-176.1891022	-17.33178139	-12.83103275	1.0
33	1.035044074	-0.2215988934	-0.09535883367	-176.1891022	-17.33178139	-12.83103275	1.0
[Ohr_L]
31	0.6407760978	-0.3659991622	-0.6893320084	-24.34924507	53.07766342	-15.02013397	1.0
32	0.6407760978	-0.3659991622	-0.6893320084	-24.34924507	53.07766342	-15.02013397	1.0
33	0.6407760978	-0.3659991622	-0.6893320084	-24.34924507	53.07766342	-15.02013397	1.0
[Ohr_R]
31	0.6409583092	0.3634999394	-0.6904845238	24.05786133	53.12416077	14.75857162	1.0
32	0.6409583092	0.3634999394	-0.6904845238	24.05786133	53.12416077	14.75857162	1.0
33	0.6409583092	0.3634999394	-0.6904845238	24.05786133	53.12416077	14.75857162	1.0
[Braun_O_L]
31	0.9801794291	-0.3706048727	-0.3292538524	-143.3172302	-34.69635391	52.39493942	1.0
32	0.9801794291	-0.3706048727	-0.3292538524	-143.3172302	-34.69635391	52.39493942	1.0
33	0.9801794291	-0.3706048727	-0.3292538524	-143.3172302	-34.69635391	52.39493942	1.0
[Braun_O_R]
31	0.9803634882	0.3690741956	-0.3304223716	143.1826782	-34.83971786	-52.3467598	1.0
32	0.9803634882	0.3690741956	-0.3304223716	143.1826782	-34.83971786	-52.3467598	1.0
33	0.9803634882	0.3690741956	-0.3304223716	143.1826782	-34.83971786	-52.3467598	1.0
[aug_lied_O_L]
31	1.038881421	-0.3271433711	-0.1608108282	-175.8613434	-20.15596199	60.31666946	1.0
32	1.038881421	-0.3271433711	-0.1608108282	-175.8613434	-20.15596199	60.31666946	1.0
33	1.038881421	-0.3271433711	-0.1608108282	-175.8613434	-20.15596199	60.31666946	1.0
[aug_lied_O_R]
31	1.039044261	0.3261157274	-0.1618429124	175.7657928	-20.31323814	-60.31218338	1.0
32	1.039044261	0.3261157274	-0.1618429124	175.7657928	-20.31323814	-60.31218338	1.0
33	1.039044261	0.3261157274	-0.1618429124	175.7657928	-20.31323814	-60.31218338	1.0
[aug_lied_U_L]
31	1.021915555	-0.3312865496	-0.1338484734	-159.8099365	-28.7482872	60.17461395	1.0
32	1.021915555	-0.3312865496	-0.1338484734	-159.8099365	-28.7482872	60.17461395	1.0
33	1.021915555	-0.3312865496	-0.1338484734	-159.8099365	-28.7482872	60.17461395	1.0
[aug_lied_U_R]
31	1.02207756	0.3303526342	-0.1348843277	159.7071381	-28.90532684	-60.15359116	1.0
32	1.02207756	0.3303526342	-0.1348843277	159.7071381	-28.90532684	-60.15359116	1.0
33	1.02207756	0.3303526342	-0.1348843277	159.7071381	-28.90532684	-60.15359116	1.0
[Bauch_003]
31	1.444672227	0.03385011479	-1.56629622	-3.870021374e-06	-137.6799469	1.039222207e-05	1.0
32	1.444672227	0.03385011479	-1.56629622	-3.870021374e-06	-137.6799469	1.039222207e-05	1.0
33	1.444672227	0.03385011479	-1.56629622	-3.870021374e-06	-137.6799469	1.039222207e-05	1.0
[Schalterplatte_L]
31	1.02581358	-0.3978532553	0.1229587197	-31.72387886	74.87913513	-62.15628052	1.0
32	0.9909334183	-0.3949345648	0.09879589826	-46.5747261	76.12453461	-77.40768433	1.0
33	0.9584326148	-0.3920159042	0.07463307679	-65.67357635	76.09619141	-97.03733063	1.0
[Oberarm_L]
31	1.418636918	9.313225746e-08	1.303851604e-07	-120.6313477	-59.65865707	143.4932251	1.0
32	1.418636918	9.313225746e-08	1.303851604e-07	-125.6238861	-56.82433701	150.0863342	1.0
33	1.418636918	9.313225746e-08	1.303851604e-07	-129.2975922	-54.07879257	155.2572479	1.0
[Unterarm_L]
31	2.028227806	1.885928214e-07	1.862644972e-08	18.46996689	71.1448288	18.70741844	1.0
32	2.028227806	1.885928214e-07	1.862644972e-08	23.49217224	73.0070343	24.07777596	1.0
33	2.028227806	1.885928214e-07	1.862644972e-08	28.55745506	74.0291214	29.84052277	1.0
[Vorderpfote_L]
31	1.705947399	2.607703209e-07	2.305023372e-07	-21.6380024	62.6040802	-16.94651794	1.0
32	1.705947399	2.607703209e-07	2.305023372e-07	-21.26089859	46.1448555	-14.42798233	1.0
33	1.705947399	2.607703209e-07	2.305023372e-07	-21.76516914	29.07551003	-12.18297863	1.0
[Schalterplatte_R]
31	0.9550747275	0.3828079998	-0.08551226556	53.32048035	80.17990112	82.77571869	1.0
32	0.9422463179	0.3828496039	-0.07069730759	44.13931656	79.56259155	73.56731415	1.0
33	0.9294179678	0.3828911781	-0.05588235334	35.99723434	78.72051239	65.3970108	1.0
[Oberarm_R]
31	1.418636441	2.235174179e-07	1.490116119e-07	70.68661499	-60.02259064	-85.10464478	1.0
32	1.418636441	2.235174179e-07	1.490116119e-07	72.03205872	-60.16525269	-86.77527618	1.0
33	1.418636441	2.235174179e-07	1.490116119e-07	73.3573761	-60.29541779	-88.38857269	1.0
[Unterarm_R]
31	2.028232098	1.350417733e-07	-7.450580597e-08	-5.863786697	66.93379211	-5.987193584	1.0
32	2.028232098	1.350417733e-07	-7.450580597e-08	-5.799226761	65.6812439	-5.951951981	1.0
33	2.028232098	1.350417733e-07	-7.450580597e-08	-5.652335167	64.2412262	-5.838580132	1.0
[Vorderpfote_R]
31	1.705937624	9.313230187e-09	7.101335342e-08	5.687791824	89.06589508	5.274493694	1.0
32	1.705937624	9.313230187e-09	7.101335342e-08	-0.4485935271	91.25527954	-0.8300786018	1.0
33	1.705937624	9.313230187e-09	7.101335342e-08	-1.240076661	92.73658752	-1.59964478	1.0
[Schwanz]
31	-0.1374606639	-1.338776023e-08	0.08676147461	0.1341600716	-124.0231476	-0.4023201466	1.0
32	-0.1257643253	-1.338776023e-08	0.08059190214	0.1054248661	-123.2887421	-0.3074287474	1.0
33	-0.1140679866	-1.338776023e-08	0.07442234457	0.07587125152	-122.5946655	-0.2155614495	1.0
[Schwanz_001]
31	0.9104326963	6.926712359e-08	1.564329999e-09	-0.5837081671	-10.76736927	0.5279692411	1.0
32	0.9104326963	6.926712359e-08	1.564329999e-09	-0.6045480967	-9.918879509	0.5530161262	1.0
33	0.9104326963	6.926712359e-08	1.564329999e-09	-0.6238878369	-9.116966248	0.5763767958	1.0
[Schwanz_002]
31	0.7855662704	6.053597446e-08	1.369335223e-07	-0.1628162414	-13.05759716	0.1247250959	1.0
32	0.7855662704	6.053597446e-08	1.369335223e-07	-0.2214445472	-13.53471279	0.170052886	1.0
33	0.7855662704	6.053597446e-08	1.369335223e-07	-0.2772840559	-13.98561382	0.2133940309	1.0
[Schwanz_003]
31	0.8350353241	6.286426668e-08	8.163624443e-08	-0.2071549445	-11.5978384	0.2996370494	1.0
32	0.8350353241	6.286426668e-08	8.163624443e-08	-0.02555166744	-5.775130272	0.1183596551	1.0
33	0.8350353241	6.286426668e-08	8.163624443e-08	0.1300289482	-0.2862531543	-0.03688610345	1.0
[Oberschenkel_L]
31	0.6250858307	-0.5837000012	0.1054053903	10.648839	-33.17427826	-3.733508587	1.0
32	0.6532590389	-0.5837000012	0.09952001274	11.01251888	-37.63941193	-4.351995468	1.0
33	0.6798145175	-0.5837000012	0.09363463521	11.49384594	-42.34057999	-5.092178822	1.0
[Unterschenkel_L]
31	1.686438918	1.162138261e-07	2.865605975e-09	-140.0215607	-69.09957123	148.4761047	1.0
32	1.686438918	1.157899661e-07	2.961126455e-09	-137.5049286	-70.20359039	146.0703125	1.0
33	1.686438918	1.153660918e-07	3.056646491e-09	-133.6718445	-71.62677002	142.280838	1.0
[Pfote1_L]
31	1.190900326	1.475788167e-07	-1.223256305e-07	-1.480156898	62.06611252	-10.84178066	1.0
32	1.190900326	1.481519263e-07	-1.208928353e-07	-1.942944288	63.61222076	-11.36095333	1.0
33	1.190900326	1.487250501e-07	-1.194600259e-07	-2.387957573	64.95333862	-11.85468006	1.0
[Pfote2_L]
31	0.9876255989	1.192809265e-07	-6.304337319e-08	66.07437897	98.2624588	60.89946747	1.0
32	0.9876255989	1.175138067e-07	-6.141953435e-08	56.55133057	98.82873535	51.20185089	1.0
33	0.9876255989	1.157466869e-07	-5.97956813e-08	48.19579315	99.52571869	42.73482513	1.0
[Oberschenkel_R]
31	0.4514049292	0.5837000608	0.04795018956	-15.50858116	-61.94732285	10.10925484	1.0
32	0.4564224184	0.5837000608	0.01828484423	-14.13328075	-57.35993958	8.508180618	1.0
33	0.4629036188	0.5837000608	-0.0100860931	-13.06606579	-52.6939621	7.206648827	1.0
[Unterschenkel_R]
31	1.686449051	1.11758709e-07	3.725289943e-08	-71.66955566	-107.2653198	57.33322144	1.0
32	1.686449051	1.11758709e-07	3.725289943e-08	-60.07205582	-109.9106903	44.90019226	1.0
33	1.686449051	1.11758709e-07	3.725289943e-08	-51.84828949	-112.866745	35.77707291	1.0
[Pfote1_R]
31	1.190900326	2.176966518e-07	1.11758709e-07	-2.334298849	35.73456573	5.788892746	1.0
32	1.190900326	2.176966518e-07	1.11758709e-07	-2.417287827	37.34218216	5.650171757	1.0
33	1.190900326	2.176966518e-07	1.11758709e-07	-2.509060144	38.98726654	5.502112389	1.0
[Pfote2_R]
31	0.9876256585	1.024454832e-07	-4.656610209e-09	-34.74272156	102.5985184	-24.76980209	1.0
32	0.9876256585	1.024454832e-07	-4.656610209e-09	-35.64823151	104.0680542	-25.14268303	1.0
33	0.9876256585	1.024454832e-07	-4.656610209e-09	-37.21027756	105.2719727	-26.15941811	1.0
[EndOfFile]
